{
    "asset" : {
        "generator" : "Khronos glTF Blender I/O v1.1.46",
        "version" : "2.0"
    },
    "scene" : 0,
    "scenes" : [
        {
            "name" : "Scene",
            "nodes" : [
                0
            ]
        }
    ],
    "nodes" : [
        {
            "mesh" : 0,
            "name" : "foot (3)",
            "rotation" : [
                0.7071068286895752,
                0,
                0,
                0.7071067094802856
            ]
        }
    ],
    "materials" : [
        {
            "doubleSided" : true,
            "name" : "Standard",
            "pbrMetallicRoughness" : {}
        }
    ],
    "meshes" : [
        {
            "name" : "Geometry_n24000",
            "primitives" : [
                {
                    "attributes" : {
                        "POSITION" : 0,
                        "NORMAL" : 1,
                        "TEXCOORD_0" : 2
                    },
                    "indices" : 3,
                    "material" : 0
                }
            ]
        }
    ],
    "accessors" : [
        {
            "bufferView" : 0,
            "componentType" : 5126,
            "count" : 246,
            "max" : [
                10.658695220947266,
                8.022748947143555,
                1.6505005359649658
            ],
            "min" : [
                -10.240981101989746,
                -8.022754669189453,
                -18.01754379272461
            ],
            "type" : "VEC3"
        },
        {
            "bufferView" : 1,
            "componentType" : 5126,
            "count" : 246,
            "type" : "VEC3"
        },
        {
            "bufferView" : 2,
            "componentType" : 5126,
            "count" : 246,
            "type" : "VEC2"
        },
        {
            "bufferView" : 3,
            "componentType" : 5123,
            "count" : 246,
            "type" : "SCALAR"
        }
    ],
    "bufferViews" : [
        {
            "buffer" : 0,
            "byteLength" : 2952,
            "byteOffset" : 0
        },
        {
            "buffer" : 0,
            "byteLength" : 2952,
            "byteOffset" : 2952
        },
        {
            "buffer" : 0,
            "byteLength" : 1968,
            "byteOffset" : 5904
        },
        {
            "buffer" : 0,
            "byteLength" : 492,
            "byteOffset" : 7872
        }
    ],
    "buffers" : [
        {
            "byteLength" : 8364,
            "uri" : "data:application/octet-stream;base64,"
        }
    ]
}
