{
    "asset" : {
        "generator" : "Khronos glTF Blender I/O v1.1.46",
        "version" : "2.0"
    },
    "scene" : 0,
    "scenes" : [
        {
            "name" : "Scene",
            "nodes" : [
                0
            ]
        }
    ],
    "nodes" : [
        {
            "mesh" : 0,
            "name" : "foot (2)",
            "rotation" : [
                0.7071068286895752,
                0,
                0,
                0.7071067094802856
            ]
        }
    ],
    "materials" : [
        {
            "doubleSided" : true,
            "name" : "Standard",
            "pbrMetallicRoughness" : {}
        }
    ],
    "meshes" : [
        {
            "name" : "Geometry_n23530",
            "primitives" : [
                {
                    "attributes" : {
                        "POSITION" : 0,
                        "NORMAL" : 1,
                        "TEXCOORD_0" : 2
                    },
                    "indices" : 3,
                    "material" : 0
                }
            ]
        }
    ],
    "accessors" : [
        {
            "bufferView" : 0,
            "componentType" : 5126,
            "count" : 78,
            "max" : [
                0.6304917335510254,
                3.04115891456604,
                0.09417486190795898
            ],
            "min" : [
                -4.874837875366211,
                -5.122378349304199,
                -10.357231140136719
            ],
            "type" : "VEC3"
        },
        {
            "bufferView" : 1,
            "componentType" : 5126,
            "count" : 78,
            "type" : "VEC3"
        },
        {
            "bufferView" : 2,
            "componentType" : 5126,
            "count" : 78,
            "type" : "VEC2"
        },
        {
            "bufferView" : 3,
            "componentType" : 5123,
            "count" : 78,
            "type" : "SCALAR"
        }
    ],
    "bufferViews" : [
        {
            "buffer" : 0,
            "byteLength" : 936,
            "byteOffset" : 0
        },
        {
            "buffer" : 0,
            "byteLength" : 936,
            "byteOffset" : 936
        },
        {
            "buffer" : 0,
            "byteLength" : 624,
            "byteOffset" : 1872
        },
        {
            "buffer" : 0,
            "byteLength" : 156,
            "byteOffset" : 2496
        }
    ],
    "buffers" : [
        {
            "byteLength" : 2652,
            "uri" : "data:application/octet-stream;base64,"
        }
    ]
}
